<?xml version="1.0" standalone="no"?>
<!DOCTYPE svg PUBLIC "-//W3C//DTD SVG 20010904//EN"
 "http://www.w3.org/TR/2001/REC-SVG-20010904/DTD/svg10.dtd">
<svg version="1.0" xmlns="http://www.w3.org/2000/svg"
 width="260.000000pt" height="260.000000pt" viewBox="0 0 260.000000 260.000000"
 preserveAspectRatio="xMidYMid meet">
<metadata>
Created by potrace 1.11, written by Peter Selinger 2001-2013
</metadata>
<g transform="translate(0.000000,260.000000) scale(0.100000,-0.100000)"
fill="#000000" stroke="none">
<path d="M880 1477 l0 -524 -23 -43 c-34 -65 -65 -84 -146 -88 -110 -6 -182
44 -197 139 -6 33 -10 37 -43 43 -20 3 -85 6 -145 6 l-109 0 7 -62 c27 -236
208 -382 472 -381 157 1 277 44 361 130 49 51 72 91 99 173 16 50 19 105 22
593 l3 537 -150 0 -151 0 0 -523z"/>
<path d="M1420 1295 l0 -705 145 0 145 0 0 280 0 280 285 0 285 0 0 110 c0 91
-3 110 -15 111 -8 1 -19 3 -25 4 -5 1 -127 3 -270 4 l-260 1 0 190 0 190 315
0 315 0 0 120 0 120 -460 0 -460 0 0 -705z"/>
</g>
</svg>
